<?xml version="1.0" standalone="no"?>
<!DOCTYPE svg PUBLIC "-//W3C//DTD SVG 20010904//EN"
 "http://www.w3.org/TR/2001/REC-SVG-20010904/DTD/svg10.dtd">
<svg version="1.0" xmlns="http://www.w3.org/2000/svg"
 width="512.000000pt" height="512.000000pt" viewBox="0 0 512.000000 512.000000"
 preserveAspectRatio="xMidYMid meet">
<metadata>
Created by potrace 1.14, written by Peter Selinger 2001-2017
</metadata>
<g transform="translate(0.000000,512.000000) scale(0.100000,-0.100000)"
fill="#000000" stroke="none">
<path d="M1325 4551 c-46 -15 -83 -42 -111 -82 l-29 -42 0 -1431 c0 -1271 3
-1519 20 -1546 2 -4 7 -22 10 -41 3 -19 17 -65 32 -104 123 -330 371 -572 698
-684 172 -58 196 -60 802 -58 l551 2 43 30 c51 36 88 104 89 163 0 84 -62 170
-141 192 -18 6 -261 10 -553 11 -587 1 -609 3 -755 77 -179 90 -298 232 -373
442 l-23 65 -5 1440 -5 1440 -22 35 c-26 42 -47 60 -95 83 -36 17 -95 21 -133
8z"/>
<path d="M3662 4549 c-43 -13 -109 -82 -122 -128 -15 -55 -14 -1572 2 -1624
49 -164 284 -182 365 -28 l23 44 0 796 -1 796 -23 45 c-43 85 -148 128 -244
99z"/>
<path d="M2579 2956 c-2 -2 -26 -6 -54 -10 -231 -27 -491 -156 -668 -330 -146
-143 -183 -204 -174 -286 12 -113 87 -183 197 -184 70 0 125 29 174 94 35 46
113 122 171 168 47 37 204 108 280 127 82 21 244 28 330 14 318 -51 574 -282
668 -604 19 -66 21 -101 24 -650 4 -572 4 -580 26 -623 12 -25 41 -58 65 -76
39 -27 52 -31 111 -31 58 0 74 4 109 29 23 16 52 45 65 65 l22 36 2 580 c2
626 1 644 -53 823 -111 370 -407 672 -781 798 -125 42 -212 56 -364 60 -81 2
-148 1 -150 0z"/>
</g>
</svg>
