<svg width="48" height="49" viewBox="0 0 48 49" fill="none" xmlns="http://www.w3.org/2000/svg">
<path d="M0 24.4966C0 11.1529 10.7452 0.335571 24 0.335571C37.2548 0.335571 48 11.1529 48 24.4966C48 37.8404 37.2548 48.6577 24 48.6577C10.7452 48.6577 0 37.8404 0 24.4966Z" fill="#0077B5"/>
<path fill-rule="evenodd" clip-rule="evenodd" d="M17.3188 15.2577C17.3188 16.8374 16.1377 18.1014 14.2412 18.1014H14.2064C12.3805 18.1014 11.2 16.8374 11.2 15.2577C11.2 13.6447 12.4164 12.4161 14.277 12.4161C16.1377 12.4161 17.2835 13.6447 17.3188 15.2577ZM16.9605 20.3468V36.7982H11.5216V20.3468H16.9605ZM36.5752 36.7982L36.5754 27.3655C36.5754 22.3123 33.8922 19.9605 30.3131 19.9605C27.4254 19.9605 26.1326 21.5573 25.4107 22.6775V20.3473H19.9711C20.0428 21.891 19.9711 36.7987 19.9711 36.7987H25.4107V27.6108C25.4107 27.1192 25.446 26.6287 25.5898 26.2767C25.9829 25.2944 26.8779 24.2774 28.3805 24.2774C30.3494 24.2774 31.1365 25.786 31.1365 27.9967V36.7982H36.5752Z" fill="white"/>
</svg>
