<svg width="48" height="49" viewBox="0 0 48 49" fill="none" xmlns="http://www.w3.org/2000/svg">
<path fill-rule="evenodd" clip-rule="evenodd" d="M24 48.6577C37.2548 48.6577 48 37.8404 48 24.4966C48 11.1529 37.2548 0.335571 24 0.335571C10.7452 0.335571 0 11.1529 0 24.4966C0 37.8404 10.7452 48.6577 24 48.6577Z" fill="#12100E"/>
<path d="M11.7946 16.7489C11.8343 16.3442 11.6845 15.9442 11.3912 15.6718L8.40336 11.9634V11.4094H17.6807L24.8515 27.6127L31.1559 11.4094H40V11.9634L37.4454 14.4869C37.2251 14.6599 37.1159 14.9442 37.1615 15.2255V33.7677C37.1159 34.0491 37.2251 34.3334 37.4454 34.5063L39.9402 37.0299V37.5839H27.3912V37.0299L29.9757 34.4448C30.2297 34.1832 30.2297 34.1063 30.2297 33.7062V18.7186L23.0439 37.5223H22.0728L13.7068 18.7186V31.3211C13.6371 31.8509 13.8079 32.3844 14.1699 32.7675L17.5313 36.9684V37.5223H8V36.9684L11.3613 32.7675C11.7208 32.3837 11.8816 31.8468 11.7946 31.3211V16.7489Z" fill="white"/>
</svg>
