<svg width="43" height="32" viewBox="0 0 43 32" fill="none" xmlns="http://www.w3.org/2000/svg">
<path d="M13.7289 5.02662C16.7285 7.02656 19.7289 6.52662 23.7294 4.52667M23.7294 4.52667C32 5 32 5 38.7293 6C40 6.18882 41 7 41.5 8.5C42 10 40.7291 12.0267 38.7293 12.0267C33.6525 12.0267 33.806 11.5267 28.7292 11.5267C31.7292 15.0267 29.029 18.0266 26.229 18.0266C28.229 22.0266 26.7294 24.5266 23.7294 25.0266C25.2294 27.0266 24.0578 28.917 20.729 30.0266C16.229 31.5266 8.63795 31.2111 4.22901 26.5266C-3.77098 18.0266 3.22906 -8.47336 23.7294 4.52667Z" stroke="white" stroke-width="2" stroke-linecap="round" stroke-linejoin="round"/>
</svg>
