<svg width="48" height="49" viewBox="0 0 48 49" fill="none" xmlns="http://www.w3.org/2000/svg">
<path d="M0 24.4966C0 11.1529 10.7452 0.335571 24 0.335571C37.2548 0.335571 48 11.1529 48 24.4966C48 37.8404 37.2548 48.6577 24 48.6577C10.7452 48.6577 0 37.8404 0 24.4966Z" fill="#55ACEE"/>
<path d="M23.2812 19.974L23.3316 20.81L22.4922 20.7076C19.4369 20.3152 16.7677 18.9844 14.5013 16.7493L13.3934 15.6403L13.108 16.4593C12.5036 18.2849 12.8897 20.2129 14.1488 21.5096C14.8203 22.2261 14.6692 22.3285 13.5109 21.902C13.108 21.7655 12.7554 21.6631 12.7219 21.7143C12.6044 21.8337 13.0073 23.3863 13.3262 24.0006C13.7627 24.8537 14.6524 25.6897 15.6261 26.1845L16.4487 26.5769L15.475 26.594C14.5349 26.594 14.5013 26.611 14.6021 26.9693C14.9378 28.0783 16.264 29.2556 17.7413 29.7675L18.7822 30.1258L17.8756 30.6717C16.5326 31.4566 14.9546 31.9002 13.3766 31.9343C12.6211 31.9514 12 32.0196 12 32.0708C12 32.2414 14.0481 33.1969 15.24 33.5722C18.8157 34.6813 23.063 34.2035 26.2526 32.3097C28.5189 30.9618 30.7852 28.2831 31.8428 25.6897C32.4136 24.3077 32.9844 21.7825 32.9844 20.5712C32.9844 19.7863 33.0347 19.6839 33.9748 18.7455C34.5288 18.1996 35.0492 17.6024 35.15 17.4318C35.3178 17.1076 35.3011 17.1076 34.4449 17.3977C33.018 17.9095 32.8165 17.8413 33.5216 17.0735C34.042 16.5275 34.6631 15.5379 34.6631 15.2479C34.6631 15.1967 34.4113 15.282 34.1259 15.4356C33.8238 15.6062 33.1523 15.8621 32.6486 16.0157L31.7421 16.3057L30.9195 15.7427C30.4663 15.4356 29.8283 15.0943 29.4926 14.992C28.6364 14.7531 27.327 14.7872 26.5548 15.0602C24.4563 15.828 23.1301 17.8071 23.2812 19.974Z" fill="white"/>
</svg>
